<svg width="64" height="64" viewBox="0 0 64 64" fill="none" xmlns="http://www.w3.org/2000/svg">
<rect width="64" height="64" rx="4" fill="#EE1515"/>
<path d="M37 32C37 33.3261 36.4732 34.5979 35.5355 35.5355C34.5979 36.4732 33.3261 37 32 37C30.6739 37 29.4022 36.4732 28.4645 35.5355C27.5268 34.5979 27 33.3261 27 32C27 30.6739 27.5268 29.4022 28.4645 28.4645C29.4022 27.5268 30.6739 27 32 27C33.3261 27 34.5979 27.5268 35.5355 28.4645C36.4732 29.4022 37 30.6739 37 32ZM52 32C52 43.04 43.04 52 32 52C20.96 52 12 43.04 12 32C12 20.96 20.96 12 32 12C43.04 12 52 20.96 52 32ZM48 32H40C40 27.58 36.42 24 32 24C27.58 24 24 27.58 24 32H16C16 40.82 23.18 48 32 48C40.82 48 48 40.82 48 32Z" fill="#222224"/>
</svg>
